<?xml version="1.0" standalone="no"?>
<!DOCTYPE svg PUBLIC "-//W3C//DTD SVG 20010904//EN"
 "http://www.w3.org/TR/2001/REC-SVG-20010904/DTD/svg10.dtd">
<svg version="1.0" xmlns="http://www.w3.org/2000/svg"
 width="700.000000pt" height="700.000000pt" viewBox="0 0 700.000000 700.000000"
 preserveAspectRatio="xMidYMid meet">
<metadata>
Created by potrace 1.11, written by Peter Selinger 2001-2013
</metadata>
<g transform="translate(0.000000,700.000000) scale(0.100000,-0.100000)"
fill="#000000" stroke="none">
<path d="M5218 6995 c-2 -2 -30 -6 -63 -10 -32 -3 -62 -8 -65 -10 -3 -1 -27
-6 -54 -9 -27 -4 -52 -9 -56 -11 -4 -2 -18 -6 -31 -8 -91 -17 -286 -97 -414
-171 -171 -99 -244 -166 -1000 -921 -729 -729 -821 -826 -904 -955 -38 -59
-155 -281 -151 -288 0 -1 -4 -17 -11 -35 -10 -28 -22 -37 -73 -57 -170 -65
-355 -178 -490 -300 -69 -62 -1423 -1416 -1482 -1482 -151 -169 -263 -358
-332 -563 -37 -109 -59 -193 -68 -260 -3 -27 -10 -72 -14 -98 -8 -54 -6 -369
2 -383 3 -5 9 -36 13 -69 3 -32 9 -63 11 -67 5 -8 10 -27 20 -78 11 -56 68
-210 110 -295 187 -385 506 -672 919 -827 44 -16 91 -32 105 -35 34 -7 39 -8
85 -21 22 -6 63 -14 90 -18 28 -3 69 -9 92 -14 44 -8 353 -5 390 3 11 3 43 9
70 12 244 34 533 165 753 340 40 32 408 393 818 803 811 811 848 853 960 1071
55 108 86 182 87 206 0 6 18 16 40 23 140 46 367 180 495 291 35 31 393 385
795 787 744 744 811 816 911 989 66 112 150 314 169 405 2 8 8 35 13 60 6 25
13 63 16 85 4 22 10 64 15 93 8 55 7 350 -2 389 -3 11 -9 43 -12 70 -16 114
-71 287 -131 417 -128 279 -361 538 -630 703 -175 108 -413 197 -584 218 -30
4 -59 9 -64 12 -9 6 -342 13 -348 8z m329 -945 c310 -85 524 -361 527 -680 1
-128 -17 -206 -77 -330 l-50 -105 -702 -703 -701 -704 -27 69 c-127 325 -363
605 -667 794 -81 50 -218 117 -285 139 l-38 12 669 670 c368 368 694 689 724
712 175 137 413 185 627 126z m-3054 -2670 c130 -314 359 -585 647 -764 92
-58 206 -114 285 -141 l50 -17 -700 -697 c-725 -722 -737 -732 -875 -788 -175
-70 -406 -61 -573 23 -370 187 -507 618 -314 989 40 76 73 112 741 782 385
386 701 701 702 700 1 -1 18 -40 37 -87z"/>
</g>
</svg>
